<svg width="25" height="32" viewBox="0 0 25 32" fill="none" xmlns="http://www.w3.org/2000/svg">
<path d="M8.79111 31.6293C4.47259 31.6028 0.900391 22.2443 0.900391 17.4782C0.900391 9.69285 6.4019 7.98842 8.52214 7.98842C9.47764 7.98842 10.4979 8.38676 11.3978 8.73926C12.0271 8.98515 12.6779 9.23898 13.0399 9.23898C13.2566 9.23898 13.7671 9.02305 14.2179 8.8336C15.1793 8.42731 16.3755 7.92236 17.7685 7.92236C17.771 7.92236 17.7744 7.92236 17.7768 7.92236C18.817 7.92236 21.9708 8.1647 23.8669 11.1876L24.311 11.8961L23.6718 12.4081C22.7587 13.1396 21.0925 14.4739 21.0925 17.117C21.0925 20.2473 22.9795 21.4512 23.886 22.0302C24.2862 22.2858 24.7004 22.5493 24.7004 23.1256C24.7004 23.502 21.8712 31.5826 17.7627 31.5826C16.7574 31.5826 16.0467 31.2618 15.4199 30.9789C14.7857 30.6925 14.2386 30.4457 13.3346 30.4457C12.8763 30.4457 12.2968 30.6757 11.6833 30.9199C10.845 31.252 9.89605 31.6293 8.81933 31.6293H8.79111Z" fill="#313131"/>
<path d="M17.7564 0.379395C17.8536 4.29272 15.3454 7.0076 12.8401 6.83733C12.4273 3.71437 15.3451 0.379395 17.7564 0.379395Z" fill="#313131"/>
</svg>
