<svg width="97" height="80" viewBox="0 0 97 80" fill="none" xmlns="http://www.w3.org/2000/svg">
<path d="M72.5077 79.9997H12.5705V12.4195L6.03369 3.06689H16.7942H65.5183C69.3901 3.06689 72.5077 6.18443 72.5077 10.0562V79.9997Z" fill="#F9F3E5"/>
<path d="M93.2738 71.2505C93.2738 71.2505 97.4976 67.8313 96.0394 61.9482C94.5812 56.0651 89.5026 35.0469 89.5026 35.0469L87.9438 37.209C87.9438 37.209 88.145 39.2204 89.3015 40.4271L93.9778 59.5849C94.1789 60.3392 94.1286 61.0934 93.7767 61.7974C93.4247 62.5013 92.771 63.2053 91.5642 63.0544L93.2738 71.2505Z" fill="#FD6F5C"/>
<path d="M90.5587 79.6486L71.7026 2.01179L72.8089 1.76038C72.8089 1.76038 77.5354 8.90055 85.8321 38.3663C92.7209 62.6027 94.1288 71.8547 94.3802 74.3689C94.4808 75.2739 94.3299 76.2293 93.9277 77.0339C93.5254 78.0395 92.5197 79.1457 90.5587 79.6486Z" fill="#A3E3E3"/>
<path d="M90.5587 79.648L71.7026 2.01123L70.5964 2.26264C70.5964 2.26264 69.6913 10.8107 75.7756 40.7793C80.8038 65.4682 83.7705 74.3683 84.6756 76.6813C84.9773 77.5361 85.5304 78.2904 86.2847 78.8435C87.1898 79.5474 88.5977 80.1005 90.5587 79.648Z" fill="#27ABA7"/>
<path d="M84.2231 75.3744C84.3237 75.7264 84.4243 76.0281 84.5248 76.2795L94.3803 73.8659C94.33 73.6145 94.2797 73.3128 94.2294 72.9105L84.2231 75.3744Z" fill="#075955"/>
<path d="M78.2891 52.5451C78.7416 54.657 79.1942 56.618 79.6467 58.3779L90.5581 55.713C90.1055 53.9531 89.6027 51.992 89.0496 49.9304L78.2891 52.5451Z" fill="#075955"/>
<path d="M71.7529 17.5985C71.8032 17.8499 71.8032 18.1014 71.8535 18.4031L79.0942 16.6432C78.9937 16.3917 78.8931 16.1403 78.8428 15.8889L71.7529 17.5985Z" fill="#075955"/>
<path d="M89.352 74.1171L84.2231 75.3741C84.3237 75.7261 84.4243 76.0278 84.5248 76.2792L89.5531 75.0724L89.352 74.1171Z" fill="#252149"/>
<path d="M85.1778 57.0202L83.7699 51.1874L78.2891 52.4947C78.7416 54.6066 79.1942 56.5676 79.6467 58.3275L85.1778 57.0202Z" fill="#252149"/>
<path d="M75.5744 17.4981L75.3733 16.7439L71.7529 17.649C71.8032 17.9004 71.8032 18.1518 71.8535 18.4535L75.5744 17.4981Z" fill="#252149"/>
<path d="M72.8091 1.7599C72.8091 1.7599 72.0046 0.301697 71.5018 0L70.9487 0.150849C70.9487 0.150849 70.5967 1.10622 70.5967 2.31301L72.8091 1.7599Z" fill="#FD6F5C"/>
<path d="M12.5707 16.6433H0V9.35225C0 5.83245 2.81584 3.06689 6.28536 3.06689C9.75488 3.06689 12.5707 5.88274 12.5707 9.35225V16.6433Z" fill="#27ABA7"/>
<path d="M22.2246 12.4211H32.5326V14.6839H28.7614V26.4501H25.9455V14.6839H22.1743V12.4211H22.2246Z" fill="#075955"/>
<path d="M48.9252 26.4496H45.4557L43.9472 24.9411C42.6399 26.0976 41.0811 26.701 39.1703 26.701C36.0025 26.701 33.9912 24.9914 33.9912 22.3767C33.9912 20.5665 34.9969 19.0078 37.1088 18.1027C36.3545 17.1976 36.1031 16.4433 36.1031 15.488C36.1031 13.5772 37.6619 12.0687 40.2263 12.0687C42.8913 12.0687 44.2489 13.6778 44.1484 15.6388H41.3828C41.4331 14.7337 40.88 14.2812 40.1257 14.2812C39.3715 14.2812 38.8184 14.784 38.8184 15.488C38.8184 16.1919 39.2206 16.7953 40.1257 17.7004L43.6958 21.2202C43.7461 21.1699 43.7461 21.1196 43.7964 21.0694L44.9529 19.1586H47.7687L46.3608 21.6225C46.0591 22.1756 45.8077 22.6281 45.506 23.131L48.9252 26.4496ZM42.137 23.1812L38.6675 19.762C37.3602 20.3654 36.7065 21.1699 36.7065 22.2259C36.7065 23.4327 37.6619 24.3378 39.2206 24.3378C40.3771 24.388 41.3325 23.9858 42.137 23.1812Z" fill="#075955"/>
<path d="M63.3556 16.7948H60.0873C59.4336 15.4372 58.2268 14.7835 56.7183 14.7835C54.2544 14.7835 52.4945 16.5937 52.4945 19.4598C52.4945 22.3259 54.2544 24.1361 56.7183 24.1361C58.2268 24.1361 59.4336 23.4824 60.0873 22.1248H63.3556C62.4003 25.0412 59.8861 26.7005 56.7686 26.7005C52.6957 26.7005 49.6284 23.7338 49.6284 19.5101C49.6284 15.2863 52.6957 12.3196 56.7686 12.3196C59.8861 12.2191 62.4003 13.8784 63.3556 16.7948Z" fill="#075955"/>
<path d="M61.0939 37.2597H26.3987C25.6947 37.2597 25.1416 36.7066 25.1416 36.0027C25.1416 35.2987 25.6947 34.7456 26.3987 34.7456H61.0939C61.7978 34.7456 62.3509 35.2987 62.3509 36.0027C62.3509 36.6564 61.7978 37.2597 61.0939 37.2597Z" fill="#27ABA7"/>
<path d="M61.0939 45.8075H26.3987C25.6947 45.8075 25.1416 45.2544 25.1416 44.5504C25.1416 43.8464 25.6947 43.2933 26.3987 43.2933H61.0939C61.7978 43.2933 62.3509 43.8464 62.3509 44.5504C62.3509 45.2041 61.7978 45.8075 61.0939 45.8075Z" fill="#27ABA7"/>
<path d="M61.0939 54.3552H26.3987C25.6947 54.3552 25.1416 53.8021 25.1416 53.0981C25.1416 52.3942 25.6947 51.8411 26.3987 51.8411H61.0939C61.7978 51.8411 62.3509 52.3942 62.3509 53.0981C62.3509 53.7518 61.7978 54.3552 61.0939 54.3552Z" fill="#27ABA7"/>
<path d="M61.0939 62.9038H26.3987C25.6947 62.9038 25.1416 62.3507 25.1416 61.6467C25.1416 60.9428 25.6947 60.3896 26.3987 60.3896H61.0939C61.7978 60.3896 62.3509 60.9428 62.3509 61.6467C62.3509 62.3004 61.7978 62.9038 61.0939 62.9038Z" fill="#27ABA7"/>
</svg>
