<svg width="235" height="23" viewBox="0 0 235 23" fill="none" xmlns="http://www.w3.org/2000/svg">
<path opacity="0.827996" fill-rule="evenodd" clip-rule="evenodd" d="M234.422 13.3473C234.229 13.9792 231.601 15.2486 231.394 14.8259C231.282 14.5983 230.939 14.5349 230.621 14.6864C229.993 14.964 227.314 14.9604 224.823 14.6825C223.975 14.5754 221.541 14.4943 219.382 14.4838C217.223 14.4733 213.962 14.4296 212.059 14.3868C210.2 14.3711 208.234 14.3643 207.742 14.4073C207.08 14.4538 206.985 14.3418 207.341 13.9394C207.619 13.6236 207.419 13.6866 206.913 14.0709C206.395 14.4516 205.903 14.5776 205.819 14.3446C205.712 14.1459 205.373 14.0699 205.043 14.2177C204.724 14.3692 203.149 14.4403 201.51 14.3815C199.879 14.3388 198.032 14.3268 197.37 14.3733C196.736 14.4144 194.641 14.4509 192.766 14.4442C185.971 14.4396 180.04 14.5331 175.133 14.7465C172.392 14.862 169.86 14.9307 169.568 14.9107C169.253 14.8834 168.662 14.9101 168.288 14.9477C166.619 15.1561 156.263 15.6655 155.238 15.5872C154.608 15.5326 153.879 15.5863 153.596 15.7071C152.347 16.1956 147.691 16.2647 147.003 15.8056C146.189 15.294 145.841 13.8058 146.575 14.0302C146.824 14.1063 146.953 13.9799 146.876 13.6801C146.678 12.8042 156.975 11.558 157.929 12.3333C158.218 12.5737 158.399 12.5738 158.342 12.3354C158.225 11.8297 175.943 10.6138 176.34 11.0943C176.531 11.3184 176.787 11.3276 177.002 11.1309C177.343 10.8206 189.07 10.3156 196.101 10.3095C197.614 10.316 200.296 10.2239 202.072 10.1312C203.852 10.0258 205.727 10.0741 206.26 10.2369C206.804 10.4034 207.414 10.3551 207.649 10.1367C207.884 9.91841 208.298 9.9205 208.591 10.1482C208.88 10.3886 209.175 10.3545 209.26 10.0764C209.337 9.82369 209.629 9.80222 209.93 10.0462C210.219 10.2865 210.601 10.3482 210.781 10.1822C210.961 10.0162 212.273 9.9611 213.719 10.0578C215.157 10.1382 217.174 10.1883 218.222 10.1493C222.31 10.0311 225.781 10.2772 226.139 10.718C226.381 11.0269 226.455 10.953 226.338 10.4888C226.221 9.98313 226.351 9.93988 226.794 10.2688C227.126 10.5363 227.457 10.5961 227.515 10.4065C227.577 10.2043 228.289 10.0351 229.124 10.014C229.955 10.0055 231.457 10.2575 232.503 10.6049C234.173 11.1568 234.347 11.3483 234.057 12.2131C233.883 12.7402 233.921 13.1249 234.137 13.0528C234.389 12.9915 234.496 13.1072 234.422 13.3473ZM179.448 3.41803C180.826 3.20985 181.235 3.33481 180.727 3.79421C180.512 4.02155 179.906 4.07038 179.393 3.89896C178.512 3.60022 178.52 3.57344 179.448 3.41803ZM185.598 1.16505C185.814 1.23121 185.536 1.45356 184.936 1.69481C184.357 1.91297 183.855 1.96442 183.775 1.79379C183.625 1.46958 185.004 0.998361 185.598 1.16505ZM196.803 2.71324C197.031 2.78307 197.455 3.16135 197.725 3.52231C197.984 3.87959 198.027 4.12687 197.786 4.05337C197.57 3.98722 197.131 3.61865 196.86 3.25769C196.601 2.90041 196.574 2.64341 196.803 2.71324ZM201.562 3.0436C202.022 3.34522 202.563 3.42292 202.757 3.21869C202.979 3.00841 203.297 2.91522 203.549 2.9924C203.778 3.06222 203.579 3.36753 203.136 3.65656C202.121 4.26849 201.046 4.04247 200.871 3.15438C200.761 2.69629 200.97 2.6577 201.562 3.0436ZM168.298 4.3959C168.549 4.47247 168.575 4.68643 168.355 4.89393C168.15 5.09252 168.252 5.35713 168.598 5.46287C169.445 5.72174 170.069 5.08829 169.485 4.5664C169.237 4.35326 169.709 4.38767 170.52 4.6356C172.202 5.1497 173.122 5.25255 174.011 4.98866C174.367 4.89137 174.788 5.00642 175.017 5.28237C175.278 5.58182 175.356 5.53723 175.265 5.11093C175.054 4.22226 176.914 3.55466 177.402 4.34929C177.664 4.77275 178.457 4.82293 180.119 4.54803C182.56 4.11299 183.639 4.20933 183.868 4.91119C184.035 5.42948 185.564 5.3337 185.729 4.7935C185.798 4.56737 185.693 4.35666 185.443 4.28009C185.228 4.21446 185.188 3.79018 185.374 3.31117C185.614 2.69762 185.815 2.6356 186.093 3.09147C186.303 3.43023 186.382 3.89422 186.254 4.14345C185.701 5.14201 186.886 5.14718 187.736 4.1571L188.657 3.0649L189.146 4.3681C189.41 5.0809 189.695 5.42897 189.776 5.16515C189.86 4.88877 190.259 4.77729 190.689 4.90855C191.869 5.26952 192.265 4.82737 191.767 3.68585C191.199 2.38589 191.64 2.43813 192.294 3.75104C192.828 4.7795 194.769 5.51037 196.113 5.1658C196.607 5.04216 196.804 4.8687 196.533 4.77228C196.263 4.67585 196.045 4.27955 196.025 3.87512C196.005 3.38803 196.17 3.31507 196.582 3.63314C197.017 3.99985 197.159 3.91959 197.126 3.34618C197.106 2.90042 197.34 2.56 197.704 2.52026C198.104 2.49145 198.187 2.81887 197.939 3.41622C197.335 4.88 197.492 5.55997 198.41 5.37348C198.869 5.28024 200.105 5.28742 201.121 5.41944C202.153 5.54254 203.29 5.45045 203.644 5.18782C203.978 4.94667 204.533 4.92393 204.797 5.12815C205.06 5.33236 205.532 5.32544 205.779 5.11266C206.105 4.81397 206.288 4.8561 206.375 5.25363C206.47 5.62604 206.899 5.71596 207.801 5.53839C208.734 5.34298 209.159 5.44547 209.386 5.89931C209.632 6.37302 209.755 6.39691 209.878 5.9949C209.967 5.70596 210.35 5.56207 210.731 5.67874C211.113 5.79542 212.818 5.8909 214.483 5.90534C216.139 5.90358 218.491 6.05938 219.626 6.22786C220.821 6.41457 221.736 6.32331 221.773 6.03234C221.805 5.71261 222.578 5.7016 223.742 5.98881C226.026 6.53608 228.602 6.85639 229.008 6.63712C229.166 6.54795 228.898 6.3563 228.433 6.2141C227.98 6.07555 227.395 5.47099 227.132 4.8822C226.751 3.99638 226.793 3.81686 227.395 3.76736C227.87 3.74787 227.935 3.91887 227.626 4.37399C227.262 4.83964 227.323 4.94054 227.805 4.81325C228.208 4.68921 228.316 4.76336 228.076 4.99234C226.992 5.9796 232.569 7.23129 234.138 6.36475C234.82 5.96877 234.861 5.74791 234.394 4.58856C234.032 3.63993 233.82 3.43773 233.658 3.92404C233.485 4.40669 233.382 4.40265 233.27 3.91516C233.159 3.55167 232.955 3.32434 232.766 3.43134C232.584 3.51322 231.763 3.46831 230.957 3.33182C230.175 3.20262 228.973 3.04103 228.366 2.97909C227.755 2.9297 226.477 2.80014 225.585 2.69202C224.692 2.5839 223.347 2.50256 222.646 2.49412L221.346 2.48127L222.261 3.28316C222.849 3.79249 222.926 4.00847 222.469 3.88248C222.084 3.77837 221.615 3.3055 221.437 2.86624C221.229 2.30824 220.922 2.11821 220.531 2.28723C220.2 2.43315 218.967 2.4134 217.729 2.24088C216.49 2.06835 215.016 2.07092 214.384 2.26225C213.775 2.46087 212.939 2.46621 212.533 2.30091C211.136 1.70898 210.653 1.7536 210.811 2.43358C210.914 2.90486 210.835 2.86678 210.44 2.27921C210.074 1.68638 209.843 1.58834 209.505 1.88338C209.246 2.13384 208.878 2.14482 208.614 1.9406C208.067 1.51231 206.751 1.97561 206.118 2.81208C205.785 3.25991 205.725 3.20034 205.881 2.56127C206.034 1.97609 205.861 1.73093 205.335 1.78974C204.907 1.82382 204.217 1.73635 203.751 1.59415C203.286 1.45195 202.982 1.55126 203.032 1.81385C203.234 2.60365 202.026 2.71519 201.824 1.9254C201.693 1.45939 201.478 1.31109 201.175 1.5344C200.919 1.73097 200.162 1.7744 199.412 1.62736C198.673 1.48397 197.797 1.40827 197.393 1.44964C197.017 1.48574 196.346 1.37679 195.979 1.20987C195.052 0.788905 194.381 1.53177 194.776 2.54524C194.996 3.14821 194.908 3.47849 194.447 3.74964C193.962 4.01349 193.858 3.92678 194.023 3.38658C194.572 1.59011 191.701 1.42665 190.64 3.19034C190.091 4.135 189.929 4.1954 189.53 3.53773C189.28 3.07659 189.238 2.48697 189.456 2.11413C189.722 1.67321 189.548 1.38672 188.869 1.17889C187.724 0.828868 187.237 1.73787 188.234 2.31727C188.688 2.57982 188.503 2.67426 187.642 2.58964C186.706 2.49571 186.49 2.34741 186.78 1.95511C187.022 1.6309 186.865 1.37683 186.337 1.2703C185.912 1.16781 185.343 1.32347 185.127 1.60108C184.873 1.96298 184.357 1.90143 183.489 1.41603C182.449 0.850816 182.243 0.842733 182.387 1.43639C182.528 2.04262 182.456 2.02074 182.01 1.34849C181.559 0.647469 181.369 0.671799 180.656 1.51152C180.189 2.0558 179.497 2.5308 179.108 2.56325C178.538 2.59491 178.533 2.5248 179.096 2.1337C179.671 1.74624 179.519 1.60361 178.065 1.20012C177.127 0.940851 176.29 0.863523 176.232 1.05197C176.174 1.24041 175.857 1.17073 175.521 0.903307C175.11 0.58523 174.956 0.620501 175.039 0.98926C175.22 1.71787 172.097 1.7384 170.933 1.02529C170.474 0.733963 166.576 0.558842 162.221 0.600969C137.805 0.870204 106.407 2.9061 76.0395 6.17747C70.4412 6.78745 64.4066 7.37396 62.5965 7.49367C57.7285 7.80492 48.0028 9.07622 47.8953 9.42797C47.8454 9.59129 47.4457 9.66143 47.0168 9.57151C46.2105 9.39368 34.4487 11.1826 33.2288 11.6751C32.8577 11.8227 31.4927 12.0647 30.1626 12.235C28.8245 12.3891 22.2141 13.665 15.4106 15.0605C2.24298 17.7796 0.706948 18.3677 0.774205 20.7923C0.816401 23.0855 2.67865 23.4351 7.97317 22.1552C10.492 21.5516 16.3462 20.3605 21.0462 19.4896C25.7463 18.6188 29.5304 17.7151 29.4688 17.4902C29.4148 17.2402 29.7045 17.2738 30.1312 17.5416C30.546 17.8058 31.7353 17.8398 32.7715 17.6071C33.8038 17.3869 35.6596 17.0751 36.9142 16.8955C41.367 16.2787 43.3421 16.0034 47.2087 15.4272C58.4844 13.7781 86.9075 10.6815 107.721 8.84395C124.488 7.36251 134.311 6.75297 151.72 6.07224C161.87 5.67257 167.554 5.25345 167.673 4.864C167.769 4.54993 168.072 4.32663 168.298 4.3959Z" fill="#131514"/>
</svg>
