<svg width="186" height="110" viewBox="0 0 186 110" fill="none" xmlns="http://www.w3.org/2000/svg">
<mask id="mask0_1259_532" style="mask-type:alpha" maskUnits="userSpaceOnUse" x="0" y="0" width="186" height="110">
<rect x="0.00195312" y="110" width="110" height="185" transform="rotate(-90 0.00195312 110)" fill="white"/>
</mask>
<g mask="url(#mask0_1259_532)">
<circle cx="4.50195" cy="101.5" r="1.5" transform="rotate(-90 4.50195 101.5)" fill="#2E2E2E"/>
<circle cx="4.50195" cy="63.5" r="1.5" transform="rotate(-90 4.50195 63.5)" fill="#2E2E2E"/>
<circle cx="4.50195" cy="25.5" r="1.5" transform="rotate(-90 4.50195 25.5)" fill="#2E2E2E"/>
<circle cx="42.502" cy="101.5" r="1.5" transform="rotate(-90 42.502 101.5)" fill="#2E2E2E"/>
<circle cx="42.502" cy="63.5" r="1.5" transform="rotate(-90 42.502 63.5)" fill="#2E2E2E"/>
<circle cx="42.502" cy="25.5" r="1.5" transform="rotate(-90 42.502 25.5)" fill="#2E2E2E"/>
<circle cx="80.502" cy="101.5" r="1.5" transform="rotate(-90 80.502 101.5)" fill="#2E2E2E"/>
<circle cx="80.502" cy="63.5" r="1.5" transform="rotate(-90 80.502 63.5)" fill="#2E2E2E"/>
<circle cx="80.502" cy="25.5" r="1.5" transform="rotate(-90 80.502 25.5)" fill="#2E2E2E"/>
<circle cx="118.502" cy="101.5" r="1.5" transform="rotate(-90 118.502 101.5)" fill="#2E2E2E"/>
<circle cx="118.502" cy="63.5" r="1.5" transform="rotate(-90 118.502 63.5)" fill="#2E2E2E"/>
<circle cx="118.502" cy="25.5" r="1.5" transform="rotate(-90 118.502 25.5)" fill="#2E2E2E"/>
<circle cx="156.502" cy="101.5" r="1.5" transform="rotate(-90 156.502 101.5)" fill="#2E2E2E"/>
<circle cx="156.502" cy="63.5" r="1.5" transform="rotate(-90 156.502 63.5)" fill="#2E2E2E"/>
<circle cx="156.502" cy="25.5" r="1.5" transform="rotate(-90 156.502 25.5)" fill="#2E2E2E"/>
</g>
</svg>
