<svg width="198" height="137" viewBox="0 0 198 137" fill="none" xmlns="http://www.w3.org/2000/svg">
<path d="M18.59 125.61C19.5656 114.368 27.214 102.828 39.732 101.942C49.3134 101.264 59.2036 106.826 66.3891 112.326C67.575 113.233 77.0865 121.022 70.9062 122.853C59.605 126.2 51.1926 117.516 48.435 107.35C44.3377 92.2445 49.8977 77.3549 61.1559 66.773C75.122 53.6458 99.0599 41.8076 117.758 51.2271C126.477 55.6194 130.733 61.5808 133.178 70.7928C135.124 78.1265 136.154 87.305 129.967 93.28C119.786 103.113 107.671 93.4484 102.365 83.7094C91.6116 63.975 100.115 36.527 119.953 26.1812C137.353 17.1066 157.438 14.0208 176.797 12.8188" stroke="#0E0E0E" stroke-width="3" stroke-linecap="round"/>
<path d="M160.803 2L178.526 12.3743L165.558 26.639" stroke="black" stroke-width="3" stroke-linecap="round"/>
</svg>
