<svg width="56" height="57" viewBox="0 0 56 57" fill="none" xmlns="http://www.w3.org/2000/svg">
<path d="M46.2225 34.3586L47.576 46.7692C47.6894 47.8495 49.4106 47.9458 49.2883 46.8445L47.9258 34.4246C47.8125 33.3443 46.0912 33.248 46.2136 34.3493L46.2225 34.3586Z" fill="#10100E"/>
<path d="M29.6824 27.5012L22.509 36.2417C21.837 37.0626 23.0529 38.1701 23.7248 37.3492L30.898 28.6046C31.5661 27.788 30.3543 26.6803 29.6784 27.5014L29.6824 27.5012Z" fill="#10100E"/>
<path d="M20.7622 7.53262L8.72743 10.8827C7.65879 11.1803 8.36862 12.7438 9.42231 12.449L21.4571 9.09889C22.5257 8.80134 21.8159 7.23787 20.7622 7.53262Z" fill="#10100E"/>
</svg>
