<svg width="185" height="177" viewBox="0 0 185 177" fill="none" xmlns="http://www.w3.org/2000/svg">
<mask id="mask0_1405_2351" style="mask-type:alpha" maskUnits="userSpaceOnUse" x="0" y="0" width="185" height="177">
<rect y="177" width="177" height="185" transform="rotate(-90 0 177)" fill="white"/>
</mask>
<g mask="url(#mask0_1405_2351)">
<circle cx="4.5" cy="168.5" r="1.5" transform="rotate(-90 4.5 168.5)" fill="#2E2E2E"/>
<circle cx="4.5" cy="130.5" r="1.5" transform="rotate(-90 4.5 130.5)" fill="#2E2E2E"/>
<circle cx="4.5" cy="92.5" r="1.5" transform="rotate(-90 4.5 92.5)" fill="#2E2E2E"/>
<circle cx="4.5" cy="54.5" r="1.5" transform="rotate(-90 4.5 54.5)" fill="#2E2E2E"/>
<circle cx="4.5" cy="16.5" r="1.5" transform="rotate(-90 4.5 16.5)" fill="#2E2E2E"/>
<circle cx="42.5" cy="168.5" r="1.5" transform="rotate(-90 42.5 168.5)" fill="#2E2E2E"/>
<circle cx="42.5" cy="130.5" r="1.5" transform="rotate(-90 42.5 130.5)" fill="#2E2E2E"/>
<circle cx="42.5" cy="92.5" r="1.5" transform="rotate(-90 42.5 92.5)" fill="#2E2E2E"/>
<circle cx="42.5" cy="54.5" r="1.5" transform="rotate(-90 42.5 54.5)" fill="#2E2E2E"/>
<circle cx="42.5" cy="16.5" r="1.5" transform="rotate(-90 42.5 16.5)" fill="#2E2E2E"/>
<circle cx="80.5" cy="168.5" r="1.5" transform="rotate(-90 80.5 168.5)" fill="#2E2E2E"/>
<circle cx="80.5" cy="130.5" r="1.5" transform="rotate(-90 80.5 130.5)" fill="#2E2E2E"/>
<circle cx="80.5" cy="92.5" r="1.5" transform="rotate(-90 80.5 92.5)" fill="#2E2E2E"/>
<circle cx="80.5" cy="54.5" r="1.5" transform="rotate(-90 80.5 54.5)" fill="#2E2E2E"/>
<circle cx="80.5" cy="16.5" r="1.5" transform="rotate(-90 80.5 16.5)" fill="#2E2E2E"/>
<circle cx="118.5" cy="168.5" r="1.5" transform="rotate(-90 118.5 168.5)" fill="#2E2E2E"/>
<circle cx="118.5" cy="130.5" r="1.5" transform="rotate(-90 118.5 130.5)" fill="#2E2E2E"/>
<circle cx="118.5" cy="92.5" r="1.5" transform="rotate(-90 118.5 92.5)" fill="#2E2E2E"/>
<circle cx="118.5" cy="54.5" r="1.5" transform="rotate(-90 118.5 54.5)" fill="#2E2E2E"/>
<circle cx="118.5" cy="16.5" r="1.5" transform="rotate(-90 118.5 16.5)" fill="#2E2E2E"/>
<circle cx="156.5" cy="168.5" r="1.5" transform="rotate(-90 156.5 168.5)" fill="#2E2E2E"/>
<circle cx="156.5" cy="130.5" r="1.5" transform="rotate(-90 156.5 130.5)" fill="#2E2E2E"/>
<circle cx="156.5" cy="92.5" r="1.5" transform="rotate(-90 156.5 92.5)" fill="#2E2E2E"/>
<circle cx="156.5" cy="54.5" r="1.5" transform="rotate(-90 156.5 54.5)" fill="#2E2E2E"/>
<circle cx="156.5" cy="16.5" r="1.5" transform="rotate(-90 156.5 16.5)" fill="#2E2E2E"/>
</g>
</svg>
