<svg width="66" height="66" viewBox="0 0 66 66" fill="none" xmlns="http://www.w3.org/2000/svg">
<path d="M12.8024 25.091L10.9099 10.3075C10.7505 9.02056 8.69382 8.94393 8.86442 10.2558L10.7678 25.0502C10.9272 26.3371 12.9838 26.4137 12.8133 25.1018L12.8024 25.091Z" fill="#10100E"/>
<path d="M30.6967 32.9075L39.0641 22.3145C39.8479 21.3196 38.3719 20.0248 37.5882 21.0197L29.2211 31.6175C28.4418 32.6072 29.913 33.9023 30.7015 32.9071L30.6967 32.9075Z" fill="#10100E"/>
<path d="M39.7925 56.5438L54.0828 52.2765C55.3517 51.8975 54.4696 50.0471 53.2184 50.4224L38.9281 54.6897C37.6592 55.0687 38.5413 56.9191 39.7925 56.5438Z" fill="#10100E"/>
</svg>
