<svg width="192" height="392" viewBox="0 0 192 392" fill="none" xmlns="http://www.w3.org/2000/svg">
<path d="M6.50739 203.746L15.1229 191.095C15.3281 190.729 15.3255 190.281 15.1161 189.916C14.9067 189.551 14.5214 189.324 14.1019 189.317L4.60951 190.097C3.10547 190.224 3.07659 192.595 4.59329 192.471L14.0912 191.69C13.7472 191.098 13.4087 190.505 13.0687 189.906L4.45313 202.557C3.59433 203.819 5.65267 205.001 6.50739 203.746Z" fill="#10100E"/>
<path d="M168.072 159.878C174.967 155.845 182.665 153.535 190.56 153.13C191.863 153.057 191.873 150.929 190.56 151.002C182.307 151.419 174.258 153.823 167.042 158.025C165.894 158.684 166.923 160.522 168.072 159.857V159.878Z" fill="#10100E"/>
<path d="M69.926 3.72442C63.5362 -0.392774 54.7867 4.68006 53.6605 12.1738C52.4423 20.2888 60.7627 25.7518 67.7501 24.9157C75.4959 23.9839 80.4683 15.0806 77.825 7.49919C75.1818 -0.0821929 65.7811 -2.27219 59.8816 2.57766C58.2957 3.87573 60.5329 6.16926 62.0958 4.87915C66.5395 1.23181 73.6725 3.65275 75.1205 9.36268C76.5685 15.0726 72.6305 21.3559 66.8383 21.7382C62.3104 22.0408 56.7021 18.927 56.6944 13.6471C56.6944 7.86551 63.5898 3.47755 68.363 6.53559C70.0869 7.64253 71.6575 4.82341 69.9413 3.72442H69.926Z" fill="#10100E"/>
<path d="M67.4057 381.788C64.3386 379.811 60.1388 382.246 59.5982 385.843C59.0135 389.739 63.0073 392.361 66.3612 391.96C70.0792 391.512 72.466 387.239 71.1972 383.6C69.9285 379.961 65.4161 378.909 62.5844 381.237C61.8231 381.86 62.897 382.961 63.6472 382.342C65.7802 380.591 69.204 381.753 69.899 384.494C70.5941 387.235 68.7038 390.251 65.9236 390.434C63.7502 390.58 61.0582 389.085 61.0545 386.551C61.0545 383.775 64.3643 381.669 66.6554 383.137C67.4829 383.668 68.2368 382.315 67.413 381.788H67.4057Z" fill="#10100E"/>
</svg>
