<svg width="247" height="361" viewBox="0 0 247 361" fill="none" xmlns="http://www.w3.org/2000/svg">
<path d="M17.5907 167.432L1.02452 181.704C0.605921 182.134 0.443901 182.753 0.59801 183.334C0.752118 183.914 1.19962 184.371 1.77602 184.535L15.1628 186.969C17.2851 187.35 18.2018 184.088 16.0629 183.699L2.66792 181.265C2.92393 182.209 3.17168 183.153 3.41943 184.105L19.9856 169.833C21.6373 168.409 19.2341 166.017 17.5907 167.432Z" fill="#10100E"/>
<path d="M115.991 6.85895C122.792 8.63972 129.019 11.9922 134.183 16.6531C135.039 17.4186 136.37 16.1005 135.508 15.3288C130.112 10.453 123.608 6.94033 116.504 5.06527C115.379 4.76066 114.876 6.54465 116.004 6.84603L115.991 6.85895Z" fill="#10100E"/>
<path d="M139.96 342.277C134.337 338.654 126.637 343.118 125.646 349.713C124.574 356.854 131.896 361.662 138.045 360.926C144.861 360.106 149.237 352.271 146.911 345.599C144.585 338.928 136.312 337 131.121 341.268C129.725 342.411 131.694 344.429 133.069 343.294C136.98 340.084 143.257 342.214 144.531 347.239C145.805 352.264 142.34 357.793 137.243 358.13C133.258 358.396 128.323 355.656 128.316 351.009C128.316 345.922 134.384 342.06 138.584 344.751C140.101 345.725 141.483 343.245 139.973 342.277H139.96Z" fill="#10100E"/>
<path d="M240.083 181.202L224.497 190.201C223.344 190.866 224.339 192.601 225.497 191.933L241.083 182.934C242.24 182.266 241.24 180.534 240.083 181.202Z" fill="#10100E"/>
<path d="M229.659 179.144L238.156 193.86C238.824 195.016 240.556 194.016 239.888 192.86L231.391 178.144C230.721 176.982 228.989 177.982 229.659 179.144Z" fill="#10100E"/>
</svg>
