<svg width="185" height="303" viewBox="0 0 185 303" fill="none" xmlns="http://www.w3.org/2000/svg">
<path d="M81.8629 4.2546C76.0109 0.486743 67.9978 5.12916 66.9663 11.9871C65.8506 19.4135 73.4709 24.413 79.8702 23.6478C86.9641 22.7951 91.518 14.6472 89.0972 7.70908C86.6764 0.770972 78.0668 -1.23321 72.6639 3.20514C71.2115 4.39307 73.2604 6.492 74.6918 5.31135C78.7615 1.97348 85.2941 4.18901 86.6203 9.41446C87.9465 14.6399 84.3399 20.3901 79.0352 20.7399C74.8882 21.0168 69.752 18.1673 69.7449 13.3354C69.7449 8.04433 76.06 4.02868 80.4315 6.82724C82.0103 7.84027 83.4487 5.26034 81.877 4.2546H81.8629Z" fill="#10100E"/>
<path d="M10.7496 142.391C6.55765 139.692 0.817624 143.017 0.0787586 147.93C-0.720422 153.249 4.73813 156.831 9.32211 156.283C14.4037 155.672 17.6658 149.835 15.9317 144.865C14.1976 139.895 8.03035 138.46 4.16011 141.639C3.11967 142.49 4.58734 143.993 5.61271 143.148C8.52796 140.757 13.2074 142.344 14.1574 146.087C15.1074 149.83 12.5239 153.949 8.72398 154.2C5.75344 154.398 2.0742 152.357 2.06917 148.896C2.06917 145.105 6.59283 142.229 9.72421 144.234C10.8551 144.959 11.8855 143.111 10.7596 142.391H10.7496Z" fill="#10100E"/>
<path d="M157 95.5302C153.276 93.1326 148.177 96.0867 147.52 100.451C146.811 105.176 151.659 108.357 155.731 107.871C160.246 107.328 163.143 102.143 161.603 97.7284C160.062 93.3135 154.584 92.0382 151.146 94.8624C150.222 95.6183 151.525 96.9539 152.436 96.2026C155.026 94.0786 159.183 95.4884 160.027 98.8135C160.871 102.139 158.576 105.798 155.2 106.02C152.561 106.196 149.293 104.383 149.289 101.308C149.289 97.9417 153.307 95.3864 156.089 97.1672C157.093 97.8118 158.009 96.1702 157.008 95.5302H157Z" fill="#10100E"/>
<path d="M84.3876 289.606C80.4082 287.044 74.9593 290.201 74.2579 294.864C73.4992 299.914 78.681 303.314 83.0325 302.794C87.8564 302.214 90.9531 296.673 89.3069 291.955C87.6608 287.237 81.8063 285.875 78.1323 288.893C77.1446 289.7 78.5378 291.128 79.5112 290.325C82.2786 288.055 86.7208 289.562 87.6226 293.115C88.5244 296.668 86.0719 300.578 82.4647 300.816C79.6448 301.005 76.1521 299.067 76.1474 295.781C76.1474 292.183 80.4416 289.453 83.4142 291.356C84.4878 292.045 85.4659 290.29 84.3971 289.606H84.3876Z" fill="#10100E"/>
<path d="M104.159 170.676C98.5408 167.059 90.8481 171.515 89.8579 178.099C88.7869 185.228 96.1023 190.028 102.246 189.293C109.056 188.475 113.428 180.653 111.104 173.992C108.78 167.332 100.514 165.408 95.3276 169.668C93.9333 170.809 95.9002 172.824 97.2744 171.69C101.181 168.486 107.453 170.613 108.726 175.629C109.999 180.646 106.537 186.166 101.444 186.502C97.463 186.768 92.5321 184.032 92.5254 179.393C92.5254 174.314 98.5879 170.459 102.785 173.146C104.3 174.118 105.681 171.641 104.172 170.676H104.159Z" fill="#10100E"/>
<path d="M177.174 214.497L160.771 223.967C159.557 224.668 160.469 226.257 161.687 225.554L178.09 216.083C179.308 215.38 178.392 213.794 177.174 214.497Z" fill="#10100E"/>
<path d="M165.965 212.224L174.975 227.83C175.683 229.056 177.268 228.141 176.56 226.915L167.55 211.309C166.839 210.078 165.254 210.993 165.965 212.224Z" fill="#10100E"/>
<path d="M106.238 170.149C106.238 170.149 136.461 144.525 152.946 106.089" stroke="black" stroke-width="3"/>
</svg>
