<svg xmlns="http://www.w3.org/2000/svg" xmlns:xlink="http://www.w3.org/1999/xlink" width="500" zoomAndPan="magnify" viewBox="0 0 375 149.999998" height="200" preserveAspectRatio="xMidYMid meet" version="1.0"><defs><g/><clipPath id="98309bb569"><path d="M 1.5 4.550781 L 144 4.550781 L 144 123 L 1.5 123 Z M 1.5 4.550781 " clip-rule="nonzero"/></clipPath><clipPath id="0338153203"><path d="M 21 137 L 125 137 L 125 147.050781 L 21 147.050781 Z M 21 137 " clip-rule="nonzero"/></clipPath></defs><g clip-path="url(#98309bb569)"><path fill="#9aa1a1" d="M 134.171875 122.480469 L 11.328125 122.480469 C 5.90625 122.480469 1.5 118.085938 1.5 112.65625 L 1.5 14.378906 C 1.5 8.945312 5.90625 4.550781 11.328125 4.550781 L 134.171875 4.550781 C 139.605469 4.550781 144 8.945312 144 14.378906 L 144 112.65625 C 144 118.085938 139.605469 122.480469 134.171875 122.480469 " fill-opacity="1" fill-rule="nonzero"/></g><g clip-path="url(#0338153203)"><path fill="#4e616d" d="M 124.34375 147.050781 L 21.15625 147.050781 L 21.15625 137.222656 L 124.34375 137.222656 L 124.34375 147.050781 " fill-opacity="1" fill-rule="nonzero"/></g><path fill="#7d8d9c" d="M 99.777344 137.222656 L 45.722656 137.222656 L 55.550781 122.480469 L 89.949219 122.480469 L 99.777344 137.222656 " fill-opacity="1" fill-rule="nonzero"/><path fill="#cdeef6" d="M 134.171875 102.828125 L 11.328125 102.828125 L 11.328125 14.378906 L 134.171875 14.378906 L 134.171875 102.828125 " fill-opacity="1" fill-rule="nonzero"/><path fill="#3b495a" d="M 136.628906 115.113281 L 124.34375 115.113281 L 124.34375 110.199219 L 136.628906 110.199219 L 136.628906 115.113281 " fill-opacity="1" fill-rule="nonzero"/><path fill="#3b495a" d="M 119.429688 115.113281 L 114.515625 115.113281 L 114.515625 110.199219 L 119.429688 110.199219 L 119.429688 115.113281 " fill-opacity="1" fill-rule="nonzero"/><path fill="#3b495a" d="M 80.121094 115.113281 L 67.835938 115.113281 L 67.835938 110.199219 L 80.121094 110.199219 L 80.121094 115.113281 " fill-opacity="1" fill-rule="nonzero"/><path fill="#3b495a" d="M 13.785156 115.113281 L 8.871094 115.113281 L 8.871094 110.199219 L 13.785156 110.199219 L 13.785156 115.113281 " fill-opacity="1" fill-rule="nonzero"/><path fill="#cd4b4c" d="M 72.75 58.601562 L 48.179688 58.601562 L 48.179688 34.035156 L 72.75 34.035156 L 72.75 58.601562 " fill-opacity="1" fill-rule="nonzero"/><path fill="#fef9e1" d="M 60.464844 51.230469 C 59.832031 51.230469 59.207031 50.992188 58.726562 50.511719 L 53.816406 45.597656 L 57.289062 42.125 L 60.464844 45.300781 L 78.382812 27.382812 L 81.859375 30.855469 L 62.203125 50.511719 C 61.722656 50.992188 61.097656 51.230469 60.464844 51.230469 " fill-opacity="1" fill-rule="nonzero"/><path fill="#cd4b4c" d="M 38.351562 90.542969 C 37.421875 90.542969 36.570312 90.015625 36.15625 89.191406 L 26.328125 69.535156 C 25.722656 68.316406 26.214844 66.835938 27.421875 66.234375 C 28.640625 65.628906 30.117188 66.117188 30.722656 67.328125 L 38.351562 82.597656 L 45.984375 67.328125 C 46.589844 66.117188 48.066406 65.628906 49.285156 66.234375 C 50.492188 66.835938 50.984375 68.316406 50.378906 69.535156 L 40.550781 89.191406 C 40.136719 90.015625 39.285156 90.542969 38.351562 90.542969 " fill-opacity="1" fill-rule="nonzero"/><path fill="#cd4b4c" d="M 60.464844 85.628906 L 70.292969 85.628906 L 70.292969 70.886719 L 60.464844 70.886719 Z M 72.75 90.542969 L 58.007812 90.542969 C 56.65625 90.542969 55.550781 89.4375 55.550781 88.085938 L 55.550781 68.429688 C 55.550781 67.078125 56.65625 65.972656 58.007812 65.972656 L 72.75 65.972656 C 74.101562 65.972656 75.207031 67.078125 75.207031 68.429688 L 75.207031 88.085938 C 75.207031 89.4375 74.101562 90.542969 72.75 90.542969 " fill-opacity="1" fill-rule="nonzero"/><path fill="#cd4b4c" d="M 97.320312 65.972656 L 82.578125 65.972656 C 81.222656 65.972656 80.121094 67.078125 80.121094 68.429688 C 80.121094 69.785156 81.222656 70.886719 82.578125 70.886719 L 87.492188 70.886719 L 87.492188 88.085938 C 87.492188 89.4375 88.59375 90.542969 89.949219 90.542969 C 91.300781 90.542969 92.40625 89.4375 92.40625 88.085938 L 92.40625 70.886719 L 97.320312 70.886719 C 98.671875 70.886719 99.777344 69.785156 99.777344 68.429688 C 99.777344 67.078125 98.671875 65.972656 97.320312 65.972656 " fill-opacity="1" fill-rule="nonzero"/><path fill="#cd4b4c" d="M 119.429688 80.714844 C 120.785156 80.714844 121.886719 79.613281 121.886719 78.257812 C 121.886719 76.90625 120.785156 75.800781 119.429688 75.800781 L 109.601562 75.800781 L 109.601562 70.886719 L 119.429688 70.886719 C 120.785156 70.886719 121.886719 69.785156 121.886719 68.429688 C 121.886719 67.078125 120.785156 65.972656 119.429688 65.972656 L 107.148438 65.972656 C 105.792969 65.972656 104.691406 67.078125 104.691406 68.429688 L 104.691406 88.085938 C 104.691406 89.4375 105.792969 90.542969 107.148438 90.542969 L 119.429688 90.542969 C 120.785156 90.542969 121.886719 89.4375 121.886719 88.085938 C 121.886719 86.734375 120.785156 85.628906 119.429688 85.628906 L 109.601562 85.628906 L 109.601562 80.714844 L 119.429688 80.714844 " fill-opacity="1" fill-rule="nonzero"/><path fill="#f9bb4b" d="M 35.898438 34.035156 C 35.898438 36.75 33.699219 38.949219 30.984375 38.949219 C 28.265625 38.949219 26.070312 36.75 26.070312 34.035156 C 26.070312 31.316406 28.265625 29.121094 30.984375 29.121094 C 33.699219 29.121094 35.898438 31.316406 35.898438 34.035156 " fill-opacity="1" fill-rule="nonzero"/><path fill="#5181be" d="M 35.898438 58.601562 L 26.070312 58.601562 L 26.070312 48.777344 C 26.070312 46.058594 28.265625 43.863281 30.984375 43.863281 C 33.699219 43.863281 35.898438 46.058594 35.898438 48.777344 L 35.898438 58.601562 " fill-opacity="1" fill-rule="nonzero"/><path fill="#87c8c2" d="M 94.863281 38.949219 L 85.035156 38.949219 L 85.035156 34.035156 L 94.863281 34.035156 L 94.863281 38.949219 " fill-opacity="1" fill-rule="nonzero"/><path fill="#87c8c2" d="M 124.34375 38.949219 L 99.777344 38.949219 L 99.777344 34.035156 L 124.34375 34.035156 L 124.34375 38.949219 " fill-opacity="1" fill-rule="nonzero"/><path fill="#87c8c2" d="M 94.863281 48.777344 L 85.035156 48.777344 L 85.035156 43.863281 L 94.863281 43.863281 L 94.863281 48.777344 " fill-opacity="1" fill-rule="nonzero"/><path fill="#87c8c2" d="M 124.34375 48.777344 L 99.777344 48.777344 L 99.777344 43.863281 L 124.34375 43.863281 L 124.34375 48.777344 " fill-opacity="1" fill-rule="nonzero"/><path fill="#87c8c2" d="M 94.863281 58.601562 L 85.035156 58.601562 L 85.035156 53.6875 L 94.863281 53.6875 L 94.863281 58.601562 " fill-opacity="1" fill-rule="nonzero"/><path fill="#87c8c2" d="M 124.34375 58.601562 L 99.777344 58.601562 L 99.777344 53.6875 L 124.34375 53.6875 L 124.34375 58.601562 " fill-opacity="1" fill-rule="nonzero"/><g fill="#ffffff" fill-opacity="1"><g transform="translate(163.353905, 74.325185)"><g><path d="M 41 -13.859375 C 35.234375 -10.652344 32.753906 -9.484375 29.179688 -9.484375 C 21.230469 -9.484375 15.683594 -16.269531 15.683594 -25.535156 C 15.683594 -36.695312 20.792969 -41.582031 27.722656 -41.582031 C 31.296875 -41.582031 34.070312 -40.5625 39.101562 -37.207031 L 44.429688 -46.472656 C 39.101562 -50.484375 32.535156 -52.160156 26.699219 -52.160156 C 14.078125 -52.160156 2.1875 -45.523438 2.1875 -25.535156 C 2.1875 -5.324219 14.738281 1.09375 27.792969 1.09375 C 34.289062 1.09375 40.34375 -0.730469 46.324219 -4.597656 Z M 41 -13.859375 "/></g></g></g><g fill="#ffffff" fill-opacity="1"><g transform="translate(213.908075, 74.325185)"><g><path d="M 11.890625 0 L 23.492188 -32.609375 L 29.035156 -17.65625 L 20.9375 -7.585938 L 32.753906 -7.585938 L 37.425781 5.105469 L 52.964844 10.941406 L 30.128906 -51.066406 L 16.707031 -51.066406 L 5.035156 -40.851562 L 13.132812 -40.851562 L -1.460938 0 Z M 11.890625 0 "/></g></g></g><g fill="#ffffff" fill-opacity="1"><g transform="translate(263.659808, 74.325185)"><g><path d="M 2.1875 -4.667969 C 7.734375 -0.800781 14.007812 1.09375 21.667969 1.09375 C 32.464844 1.09375 40.851562 -3.5 40.851562 -15.027344 C 40.851562 -25.753906 34.359375 -28.015625 26.191406 -30.785156 C 20.644531 -32.683594 15.464844 -34.140625 15.464844 -37.425781 C 15.464844 -39.394531 17.289062 -41.582031 22.25 -41.582031 C 26.261719 -41.582031 29.617188 -40.414062 35.234375 -37.207031 L 40.5625 -46.472656 C 34.871094 -50.335938 28.523438 -52.160156 22.324219 -52.160156 C 12.257812 -52.160156 3.429688 -48.074219 3.429688 -36.257812 C 3.429688 -26.335938 8.609375 -23.054688 18.675781 -19.476562 C 24.21875 -17.507812 28.816406 -15.757812 28.816406 -13.421875 C 28.816406 -10.871094 24.875 -9.484375 21.230469 -9.484375 C 16.121094 -9.484375 12.914062 -10.652344 7.515625 -13.859375 Z M 2.1875 -4.667969 "/></g></g></g><g fill="#ffffff" fill-opacity="1"><g transform="translate(309.472279, 74.325185)"><g><path d="M 8.097656 -51.066406 L 0 -40.851562 L 17.289062 -40.851562 L 17.289062 10.941406 L 30.421875 5.105469 L 30.421875 -40.851562 L 43.40625 -40.851562 L 47.054688 -51.066406 Z M 8.097656 -51.066406 "/></g></g></g><g fill="#ffffff" fill-opacity="1"><g transform="translate(205.469565, 116.608164)"><g><path d="M 18.78125 -14.285156 L 18.664062 -9.820312 L 18.664062 0 L 23.304688 0 L 23.304688 -22.328125 L 16.433594 -22.328125 L 12.453125 -8.042969 L 8.445312 -22.328125 L 1.601562 -22.328125 L 1.601562 0 L 6.242188 0 L 6.242188 -9.820312 L 6.097656 -14.285156 L 10.078125 0 L 14.800781 0 Z M 18.78125 -14.285156 "/></g></g></g><g fill="#ffffff" fill-opacity="1"><g transform="translate(230.337918, 116.608164)"><g><path d="M 11.277344 -6.84375 L 17.664062 -22.328125 L 12.597656 -22.328125 L 8.960938 -12.566406 L 5.296875 -22.328125 L 0.230469 -22.328125 L 6.640625 -6.84375 L 6.640625 0 L 11.277344 0 Z M 11.277344 -6.84375 "/></g></g></g><g fill="#ffffff" fill-opacity="1"><g transform="translate(248.223671, 116.608164)"><g/></g></g><g fill="#ffffff" fill-opacity="1"><g transform="translate(253.947113, 116.608164)"><g><path d="M 12.367188 0.0585938 L 17.949219 -22.328125 L 12.96875 -22.328125 L 9.160156 -5.296875 L 5.351562 -22.328125 L 0.402344 -22.328125 L 5.984375 0.0585938 Z M 12.367188 0.0585938 "/></g></g></g><g fill="#ffffff" fill-opacity="1"><g transform="translate(272.290744, 116.608164)"><g><path d="M 9.617188 0.371094 C 15.429688 0.371094 18.148438 -2.863281 18.148438 -10.59375 L 18.148438 -11.738281 C 18.148438 -19.464844 15.429688 -22.703125 9.617188 -22.703125 C 3.835938 -22.703125 1.117188 -19.464844 1.117188 -11.738281 L 1.117188 -10.59375 C 1.117188 -2.863281 3.835938 0.371094 9.617188 0.371094 Z M 9.503906 -3.636719 C 6.640625 -3.636719 5.8125 -6.125 5.8125 -10.59375 L 5.8125 -11.738281 C 5.8125 -16.203125 6.640625 -18.695312 9.503906 -18.695312 L 9.761719 -18.695312 C 12.625 -18.695312 13.425781 -16.203125 13.425781 -11.738281 L 13.425781 -10.59375 C 13.425781 -6.125 12.625 -3.636719 9.761719 -3.636719 Z M 9.503906 -3.636719 "/></g></g></g><g fill="#ffffff" fill-opacity="1"><g transform="translate(291.55012, 116.608164)"><g><path d="M 10.277344 -18.320312 L 15.457031 -18.320312 L 15.457031 -22.328125 L 0.488281 -22.328125 L 0.488281 -18.320312 L 5.640625 -18.320312 L 5.640625 0 L 10.277344 0 Z M 10.277344 -18.320312 "/></g></g></g><g fill="#ffffff" fill-opacity="1"><g transform="translate(307.489896, 116.608164)"><g><path d="M 1.601562 -22.328125 L 1.601562 0 L 15.257812 0 L 15.257812 -4.007812 L 6.242188 -4.007812 L 6.242188 -9.390625 L 13.828125 -9.390625 L 13.828125 -13.398438 L 6.242188 -13.398438 L 6.242188 -18.320312 L 15.257812 -18.320312 L 15.257812 -22.328125 Z M 1.601562 -22.328125 "/></g></g></g><path stroke-linecap="butt" transform="matrix(0.748782, 0, 0, 0.75, 159.653286, 87.918417)" fill="none" stroke-linejoin="miter" d="M -0.00125813 0.499403 L 269.451914 0.499403 " stroke="#ff914d" stroke-width="1" stroke-opacity="1" stroke-miterlimit="4"/><path stroke-linecap="butt" transform="matrix(0.748782, 0, 0, 0.75, 159.653286, 122.35014)" fill="none" stroke-linejoin="miter" d="M -0.00125813 0.501897 L 269.451914 0.501897 " stroke="#008037" stroke-width="1" stroke-opacity="1" stroke-miterlimit="4"/></svg>